<svg preserveAspectRatio="none" width="100%" height="100%" overflow="visible" style="display: block;" viewBox="0 0 35 35" fill="none" xmlns="http://www.w3.org/2000/svg">
<g id="streamline-pixel:hand-fuck-middle-finger">
<path id="Vector" d="M29.1703 20.0047H25.8344V21.6672H29.1703V26.6656H30.8328V14.9953H29.1703V20.0047ZM27.4969 30.0016H10.8391V28.3391H9.16563V30.0016H7.50313V35H30.8328V30.0016H29.1703V26.6656H27.4969V30.0016ZM27.4969 33.3375H24.1719V31.6641H27.4969V33.3375ZM27.4969 13.3328H29.1703V14.9953H27.4969V13.3328ZM24.1719 20.0047H25.8344V13.3328H27.4969V11.6703H24.1719V20.0047ZM20.8359 20.0047H24.1719V21.6672H20.8359V20.0047Z" fill="var(--fill-0, white)"/>
<path id="Vector_2" d="M19.1734 16.6687H15.8375V18.3313H17.5V21.6672H19.1734V20.0047H20.8359V11.6703H24.1719V9.99688H20.8359V1.6625H19.1734V16.6687ZM15.8375 0H19.1734V1.6625H15.8375V0Z" fill="var(--fill-0, white)"/>
<path id="Vector_3" d="M12.5016 21.6672H17.5V23.3297H12.5016V21.6672ZM14.1641 14.9953H12.5016V16.6687H15.8375V1.6625H14.1641V9.99688H10.8391V11.6703H14.1641V14.9953ZM10.8391 20.0047H12.5016V21.6672H10.8391V20.0047Z" fill="var(--fill-0, white)"/>
<path id="Vector_4" d="M12.5016 14.9953V13.3328H10.8391V11.6703H9.16562V13.3328H7.50312V14.9953H12.5016ZM7.50312 26.6656H9.16562V28.3391H7.50312V26.6656ZM5.84062 23.3297H7.50312V26.6656H5.84062V23.3297ZM5.84062 14.9953H7.50312V16.6688H5.84062V14.9953ZM4.16719 16.6688H5.84062V23.3297H4.16719V16.6688Z" fill="var(--fill-0, white)"/>
</g>
</svg>
